<svg width="32" height="32" viewBox="0 0 32 32" xmlns="http://www.w3.org/2000/svg">
  <defs>
    <!-- 黑色背景 -->
    <radialGradient id="darkBg" cx="50%" cy="50%" r="50%">
      <stop offset="0%" style="stop-color:#1a1a1a;stop-opacity:1" />
      <stop offset="100%" style="stop-color:#000000;stop-opacity:1" />
    </radialGradient>
    
    <!-- 主要流体渐变 -->
    <radialGradient id="fluidGradient" cx="50%" cy="50%" r="70%">
      <stop offset="0%" style="stop-color:#00ffff;stop-opacity:1" />
      <stop offset="25%" style="stop-color:#00ccff;stop-opacity:1" />
      <stop offset="50%" style="stop-color:#0088ff;stop-opacity:1" />
      <stop offset="75%" style="stop-color:#0044cc;stop-opacity:1" />
      <stop offset="100%" style="stop-color:#002299;stop-opacity:1" />
    </radialGradient>
    
    <!-- 中心深色 -->
    <radialGradient id="centerDark" cx="50%" cy="50%" r="30%">
      <stop offset="0%" style="stop-color:#000000;stop-opacity:1" />
      <stop offset="70%" style="stop-color:#001122;stop-opacity:0.8" />
      <stop offset="100%" style="stop-color:#003366;stop-opacity:0.6" />
    </radialGradient>
    
    <!-- 强烈发光效果 -->
    <filter id="intenseGlow" x="-150%" y="-150%" width="400%" height="400%">
      <feGaussianBlur stdDeviation="4" result="coloredBlur"/>
      <feMerge> 
        <feMergeNode in="coloredBlur"/>
        <feMergeNode in="SourceGraphic"/>
      </feMerge>
    </filter>
  </defs>
  
  <!-- 黑色背景 -->
  <rect width="32" height="32" fill="url(#darkBg)"/>
  
  <!-- 流体 M 主形状 -->
  <path d="M 4 28 
           L 4 6
           C 4 4, 6 2, 8 4
           L 13 12
           L 16 16
           L 19 12
           L 24 4
           C 26 2, 28 4, 28 6
           L 28 28
           C 28 30, 26 30, 24 28
           L 20 20
           L 18 24
           L 16 20
           L 14 24
           L 12 20
           L 8 28
           C 6 30, 4 30, 4 28 Z" 
        fill="url(#fluidGradient)" 
        filter="url(#intenseGlow)"/>
  
  <!-- 中心漩涡 -->
  <circle cx="16" cy="16" r="6" fill="url(#centerDark)" opacity="0.8"/>
  
  <!-- 流线装饰 -->
  <path d="M 6 8 
           C 10 10, 12 12, 16 16
           C 20 12, 22 10, 26 8" 
        fill="none" 
        stroke="#00ffff" 
        stroke-width="1" 
        opacity="0.7"/>
  
  <!-- 发光点装饰 -->
  <circle cx="8" cy="6" r="0.8" fill="#00ffff" opacity="0.9" filter="url(#intenseGlow)"/>
  <circle cx="24" cy="6" r="0.8" fill="#00ffff" opacity="0.9" filter="url(#intenseGlow)"/>
  <circle cx="16" cy="30" r="0.6" fill="#0088ff" opacity="0.8"/>
</svg> 