<svg width="32" height="32" viewBox="0 0 32 32" xmlns="http://www.w3.org/2000/svg">
  <defs>
    <!-- 发光渐变 -->
    <radialGradient id="centerGradient" cx="50%" cy="50%" r="60%">
      <stop offset="0%" style="stop-color:#000;stop-opacity:1" />
      <stop offset="50%" style="stop-color:#1e40af;stop-opacity:0.8" />
      <stop offset="100%" style="stop-color:#00d4ff;stop-opacity:0.6" />
    </radialGradient>
    
    <!-- M 字母渐变 -->
    <linearGradient id="mGradient" x1="0%" y1="0%" x2="100%" y2="100%">
      <stop offset="0%" style="stop-color:#00ffff;stop-opacity:1" />
      <stop offset="50%" style="stop-color:#0066ff;stop-opacity:1" />
      <stop offset="100%" style="stop-color:#0033cc;stop-opacity:1" />
    </linearGradient>
    
    <!-- 发光滤镜 -->
    <filter id="glow" x="-50%" y="-50%" width="200%" height="200%">
      <feGaussianBlur stdDeviation="2" result="coloredBlur"/>
      <feMerge> 
        <feMergeNode in="coloredBlur"/>
        <feMergeNode in="SourceGraphic"/>
      </feMerge>
    </filter>
  </defs>
  
  <!-- 背景发光环 -->
  <circle cx="16" cy="16" r="15" fill="url(#centerGradient)" opacity="0.3"/>
  
  <!-- 流动的 M 形状 -->
  <path d="M 6 26 
           C 6 24, 6 8, 6 8
           C 6 6, 8 4, 10 6
           L 16 14
           L 22 6
           C 24 4, 26 6, 26 8
           L 26 26
           C 26 26, 24 26, 22 24
           L 18 16
           L 16 20
           L 14 16
           L 10 24
           C 8 26, 6 26, 6 26 Z" 
        fill="url(#mGradient)" 
        filter="url(#glow)"
        opacity="0.9"/>
  
  <!-- 内部高光线条 -->
  <path d="M 8 10 L 16 18 L 24 10" 
        fill="none" 
        stroke="#00ffff" 
        stroke-width="1" 
        stroke-linecap="round"
        opacity="0.6"/>
        
  <!-- 装饰光点 -->
  <circle cx="8" cy="8" r="0.5" fill="#00ffff" opacity="0.8"/>
  <circle cx="24" cy="8" r="0.5" fill="#00ffff" opacity="0.8"/>
  <circle cx="16" cy="28" r="0.5" fill="#0066ff" opacity="0.6"/>
</svg> 