<svg width="32" height="32" viewBox="0 0 32 32" xmlns="http://www.w3.org/2000/svg">
  <defs>
    <!-- 白色背景渐变 -->
    <radialGradient id="lightBg" cx="50%" cy="50%" r="60%">
      <stop offset="0%" style="stop-color:#f8fafc;stop-opacity:1" />
      <stop offset="50%" style="stop-color:#e2e8f0;stop-opacity:0.8" />
      <stop offset="100%" style="stop-color:#cbd5e1;stop-opacity:0.6" />
    </radialGradient>
    
    <!-- M 字母蓝色渐变 -->
    <linearGradient id="mLightGradient" x1="0%" y1="0%" x2="100%" y2="100%">
      <stop offset="0%" style="stop-color:#00d4ff;stop-opacity:1" />
      <stop offset="50%" style="stop-color:#0ea5e9;stop-opacity:1" />
      <stop offset="100%" style="stop-color:#0369a1;stop-opacity:1" />
    </linearGradient>
    
    <!-- 柔和阴影 -->
    <filter id="softShadow" x="-50%" y="-50%" width="200%" height="200%">
      <feDropShadow dx="0" dy="1" stdDeviation="1" flood-color="#64748b" flood-opacity="0.2"/>
    </filter>
  </defs>
  
  <!-- 背景圆形 -->
  <circle cx="16" cy="16" r="15" fill="url(#lightBg)" opacity="0.4"/>
  
  <!-- 清爽的 M 形状 -->
  <path d="M 6 26 
           C 6 24, 6 8, 6 8
           C 6 6, 8 4, 10 6
           L 16 14
           L 22 6
           C 24 4, 26 6, 26 8
           L 26 26
           C 26 26, 24 26, 22 24
           L 18 16
           L 16 20
           L 14 16
           L 10 24
           C 8 26, 6 26, 6 26 Z" 
        fill="url(#mLightGradient)" 
        filter="url(#softShadow)"
        opacity="0.9"/>
  
  <!-- 内部高光线条 -->
  <path d="M 8 10 L 16 18 L 24 10" 
        fill="none" 
        stroke="#0ea5e9" 
        stroke-width="1" 
        stroke-linecap="round"
        opacity="0.7"/>
        
  <!-- 装饰点 -->
  <circle cx="8" cy="8" r="0.5" fill="#0ea5e9" opacity="0.6"/>
  <circle cx="24" cy="8" r="0.5" fill="#0ea5e9" opacity="0.6"/>
  <circle cx="16" cy="28" r="0.5" fill="#0369a1" opacity="0.5"/>
</svg> 